<svg width="14" height="40" viewBox="0 0 14 40" fill="none" xmlns="http://www.w3.org/2000/svg">
<path d="M7 0C8.06087 0 9.07828 0.421427 9.82843 1.17157C10.5786 1.92172 11 2.93913 11 4C11 5.06087 10.5786 6.07828 9.82843 6.82843C9.07828 7.57857 8.06087 8 7 8C5.93913 8 4.92172 7.57857 4.17157 6.82843C3.42143 6.07828 3 5.06087 3 4C3 2.93913 3.42143 1.92172 4.17157 1.17157C4.92172 0.421427 5.93913 0 7 0ZM4 10H10C11.0609 10 12.0783 10.4214 12.8284 11.1716C13.5786 11.9217 14 12.9391 14 14V25H11V40H3V25H0V14C0 12.9391 0.421428 11.9217 1.17157 11.1716C1.92172 10.4214 2.93913 10 4 10Z" fill="#343434"/>
</svg>
