<svg width="31" height="30" viewBox="0 0 31 30" fill="none" xmlns="http://www.w3.org/2000/svg">
<path d="M20.6587 13.6548L21.2148 13.0856C22.0858 12.1986 22.5771 10.9938 22.5806 9.73605C22.5841 8.47831 22.0995 7.27065 21.2333 6.37865L16.3312 1.38876C15.4623 0.499536 14.284 0 13.0554 0C11.8268 0 10.6485 0.499536 9.77963 1.38876L1.85658 9.4997C0.987964 10.3892 0.5 11.5954 0.5 12.8532C0.5 14.1109 0.987964 15.3172 1.85658 16.2066L6.73088 21.1965C7.59976 22.0858 8.77806 22.5853 10.0067 22.5853C11.2353 22.5853 12.4136 22.0858 13.2824 21.1965L13.6994 20.7696L15.6455 22.8567H18.8332V25.7026H22.2526V27.2489L24.94 30H30.5V23.7864L20.6587 13.6548ZM12.7264 7.40319L7.67608 12.5828C7.50246 12.7595 7.26759 12.8587 7.02278 12.8587C6.77796 12.8587 6.5431 12.7595 6.36947 12.5828L5.99881 12.2034C5.82621 12.0256 5.72934 11.7852 5.72934 11.5346C5.72934 11.2839 5.82621 11.0435 5.99881 10.8658L11.0399 5.67665C11.2135 5.49996 11.4484 5.40079 11.6932 5.40079C11.938 5.40079 12.1729 5.49996 12.3465 5.67665L12.7172 6.05611C12.8046 6.14367 12.8743 6.24809 12.9221 6.36336C12.97 6.47862 12.9951 6.60244 12.9959 6.72767C12.9968 6.85291 12.9734 6.97708 12.9272 7.09302C12.8809 7.20896 12.8127 7.31438 12.7264 7.40319ZM28.6467 28.1027H25.7369L24.0967 26.4331V23.7769H20.6865V20.9309H16.4146L15.0061 19.4036L19.3799 14.9924L28.6467 24.5737V28.1027Z" fill="#343434"/>
</svg>
