<svg width="24" height="24" viewBox="0 0 24 24" fill="none" xmlns="http://www.w3.org/2000/svg">
<path fill-rule="evenodd" clip-rule="evenodd" d="M7.24792e-05 8.931C7.24792e-05 3.9975 4.02457 0 8.98657 0C13.9531 0 17.9761 3.9975 17.9761 8.931C17.9761 13.8615 13.9516 17.859 8.98657 17.859C4.02457 17.859 7.24792e-05 13.8615 7.24792e-05 8.931ZM16.5991 9.0285C16.5979 8.02693 16.3993 7.03541 16.0148 6.1106C15.6302 5.1858 15.0672 4.34584 14.3579 3.63874C13.6485 2.93163 12.8068 2.37124 11.8808 1.9896C10.9548 1.60795 9.96264 1.41253 8.96107 1.4145C7.9599 1.41292 6.96822 1.60866 6.04273 1.99052C5.11723 2.37238 4.27606 2.93288 3.56728 3.63998C2.85851 4.34708 2.29602 5.18693 1.91198 6.11152C1.52794 7.03611 1.32986 8.02732 1.32907 9.0285C1.33006 10.0296 1.52828 11.0206 1.91241 11.945C2.29654 12.8694 2.85906 13.7091 3.56781 14.4161C4.27657 15.123 5.11767 15.6834 6.04307 16.0651C6.96847 16.4469 7.96002 16.6426 8.96107 16.641C13.1806 16.641 16.5991 13.233 16.5991 9.0285Z" fill="white"/>
<path fill-rule="evenodd" clip-rule="evenodd" d="M21.267 23.946L24 21.213L17.9445 15.156C17.9445 15.156 17.8005 16.3035 17.0745 17.0265C16.3515 17.7525 15.2115 17.8905 15.2115 17.8905L21.267 23.946Z" fill="white"/>
<path fill-rule="evenodd" clip-rule="evenodd" d="M3.90297 7.60952C3.90297 8.46752 3.24297 8.14352 3.24297 6.95102C3.24297 4.89602 4.90647 3.23102 6.96147 3.23102C8.15697 3.23102 8.47947 3.88952 7.61997 3.88952C7.13165 3.88972 6.64815 3.98609 6.19708 4.17315C5.746 4.3602 5.33619 4.63427 4.99103 4.9797C4.64588 5.32514 4.37214 5.73517 4.18545 6.1864C3.99876 6.63762 3.90277 7.1212 3.90297 7.60952Z" fill="white"/>
</svg>
